PathFileType	4	(X/Y/Z)	/Users/niels/Desktop/University/Third Semester/Perception and Action/Exam/Gymnastics Motion Tracking/Code for Gym Tracking/Analyzed Data/Webcam_Backflip/id5_1_baseline_Sports2D/id5_1_baseline_Sports2D_px_person00.trc
DataRate	CameraRate	NumFrames	NumMarkers	Units	OrigDataRate	OrigDataStartFrame	OrigNumFrames
29.31818181818182	29.31818181818182	12	22	m	29.31818181818182	29	44
Frame#	Time	Hip			RHip			RKnee			RAnkle			RBigToe			RSmallToe			RHeel			LHip			LKnee			LAnkle			LBigToe			LSmallToe			LHeel			Neck			Head			Nose			RShoulder			RElbow			RWrist			LShoulder			LElbow			LWrist		
		X1	Y1	Z1	X2	Y2	Z2	X3	Y3	Z3	X4	Y4	Z4	X5	Y5	Z5	X6	Y6	Z6	X7	Y7	Z7	X8	Y8	Z8	X9	Y9	Z9	X10	Y10	Z10	X11	Y11	Z11	X12	Y12	Z12	X13	Y13	Z13	X14	Y14	Z14	X15	Y15	Z15	X16	Y16	Z16	X17	Y17	Z17	X18	Y18	Z18	X19	Y19	Z19	X20	Y20	Z20	X21	Y21	Z21	X22	Y22	Z22
29	0.9891472868217054	1.0212624046444132	-0.7950219106293808	0.0	1.024919965503697	-0.794675784136046	0.0	1.0370821017603595	-1.0406833381712202	0.0	1.039072269646647	-1.1142965735062307	0.0	1.0724078659532903	-1.0656414275680854	0.0			0.0	0.995037301743456	-1.0805837637659672	0.0	1.0378370075677705	-0.7972328528087806	0.0	1.033545954452436	-1.0317957931680741	0.0	1.034571422734606	-1.0842350608643048	0.0	1.0265216858559756	-1.0709359344470413	0.0	1.0441701141691753	-1.077995434276743	0.0	0.9347233160781261	-1.0829362715562363	0.0	1.0474831061955383	-0.4706608620741218	0.0	1.087868008961082	-0.33863797009091917	0.0	1.1063128941776725	-0.417826190932486	0.0	1.0302290791044804	-0.5172606498799841	0.0	1.1225374831443609	-0.6765644206080896	0.0	1.242109512400432	-0.7917596027714395	0.0	1.0394534944275449	-0.5172525253130671	0.0	1.0903404416282287	-0.6641582460499352	0.0	1.126759526263439	-0.8115899083619328	0.0
30	1.0232558139534884	1.02327460953659	-0.7944478254659296	0.0	1.0266561209313119	-0.7945802777037203	0.0	1.037889115468854	-1.040904722912145	0.0	1.0394326122778725	-1.10674861277886	0.0	1.0724078353220126	-1.0656414368268452	0.0			0.0	0.995037074427126	-1.0805838174395628	0.0	1.04041624364872	-0.7972999082215941	0.0	1.0339383864693015	-1.0314112798382304	0.0	1.0333566797943619	-1.0814067966907845	0.0	1.0265216256671406	-1.070935939930658	0.0	1.0441700780438075	-1.0779953826434796	0.0	0.934730192414738	-1.0829363485757963	0.0	1.0486386497203344	-0.47054364840327834	0.0	1.0880876239446025	-0.3387084744278926	0.0	1.1069877733303342	-0.41768727887507706	0.0	1.0312917815013476	-0.5180132566512307	0.0	1.1333659308330841	-0.6702738865124893	0.0	1.2583422257669	-0.7774914666844212	0.0	1.044529330991691	-0.517601568283354	0.0	1.0994920422124217	-0.6578699947494826	0.0	1.1190176447514817	-0.8105343729247229	0.0
31	1.0573643410852713	1.0247643134466329	-0.7938671286819382	0.0	1.028218801014397	-0.7947713321843577	0.0	1.0387276285521498	-1.040924304138913	0.0	1.0393761943018562	-1.09747299246493	0.0	1.072407823964679	-1.0656414402597683	0.0			0.0	0.9950369037317981	-1.0805837924534032	0.0	1.0418213866600157	-0.7976830310668929	0.0	1.0344661041167114	-1.030906057963034	0.0	1.0314500649820746	-1.0799374606152172	0.0	1.0265215961492817	-1.0709359586246048	0.0	1.0441700849808255	-1.0779953717891047	0.0	0.9347389758126418	-1.0829360864713962	0.0	1.049966317492679	-0.47051855619047034	0.0	1.0885824001130344	-0.3386527401670992	0.0	1.1079318589695801	-0.41763915723571143	0.0	1.0322476185741185	-0.5188319222125503	0.0	1.1431678670481586	-0.6632262320807409	0.0	1.2734472298575716	-0.7625294621792089	0.0	1.0489419793587074	-0.5179563938481558	0.0	1.1064595453442043	-0.6514833295378134	0.0	1.1113227241222927	-0.8095488366835747	0.0
32	1.0914728682170542	1.0257524228304185	-0.7932528484737781	0.0	1.0294947592428079	-0.7951717815656102	0.0	1.0394759881521514	-1.0407286343491786	0.0	1.038608854090645	-1.0889951242478046	0.0	1.0724078236281087	-1.0656414403615015	0.0			0.0	0.995036802466911	-1.0805837417381643	0.0	1.042516691820292	-0.7982547392183054	0.0	1.0352630275345014	-1.0303678652665986	0.0	1.029331056485221	-1.0791744946597241	0.0	1.0265215872569917	-1.0709359777277758	0.0	1.0441701078223113	-1.0779953806970592	0.0	0.9347461765024191	-1.0829357550973813	0.0	1.051551864417324	-0.4705597673231925	0.0	1.0893879134252804	-0.33853872446858646	0.0	1.1091615069427712	-0.4176716620612337	0.0	1.0331796234375636	-0.519592471676584	0.0	1.1519232683543228	-0.6555712163608962	0.0	1.2875308932485396	-0.7470999744013581	0.0	1.0524353463638656	-0.5183878386110319	0.0	1.1109862781639943	-0.6456844031599526	0.0	1.104581020347066	-0.8086624553233698	0.0
33	1.1255813953488372	1.0263685077755276	-0.7924382225773601	0.0	1.0303849714763975	-0.7955026068591855	0.0	1.039994326579742	-1.0400391929276431	0.0	1.0371142946490115	-1.0826024714136508	0.0	1.0724078279317406	-1.0656414390606648	0.0			0.0	0.9950367571864227	-1.0805836940859614	0.0	1.0429908467815692	-0.7987079540737388	0.0	1.036334444256492	-1.0296303227062356	0.0	1.0274497752462828	-1.0787887896469721	0.0	1.0265215892782968	-1.0709359918454366	0.0	1.0441701310660723	-1.0779953953593808	0.0	0.9347507809497825	-1.082935484540458	0.0	1.0533280921150654	-0.4706282796861	0.0	1.0904902418127744	-0.338461071868318	0.0	1.1105543553062458	-0.41777534222508866	0.0	1.0340837500080855	-0.5202467627828751	0.0	1.1597242715014997	-0.6475561611252313	0.0	1.3005671362742737	-0.7313553488116717	0.0	1.055103121003607	-0.5189085741309514	0.0	1.1140092546272435	-0.6406920547367827	0.0	1.0994668713731848	-0.8079094961654693	0.0
34	1.15968992248062	1.0268440254744444	-0.7912903175787119	0.0	1.0309078975389503	-0.7955063258175229	0.0	1.0402098331229697	-1.0385987779577752	0.0	1.0352959904589685	-1.078390477249903	0.0	1.0724078329896445	-1.065641437531838	0.0			0.0	0.9950367472340119	-1.0805836605557537	0.0	1.043460028254906	-0.798811946639772	0.0	1.037579648924296	-1.0285066474383775	0.0	1.0261079719352328	-1.0785485396001322	0.0	1.0265215952593605	-1.0709360000958286	0.0	1.044170148204236	-1.077995408440911	0.0	0.9347530712872653	-1.082935312090886	0.0	1.0551298018204807	-0.4706893869059933	0.0	1.0918702716521433	-0.33850203677449975	0.0	1.111974875238034	-0.41793718828310983	0.0	1.0349666185004476	-0.5207339792471634	0.0	1.166758919047695	-0.6394048442972199	0.0	1.3121987463384546	-0.7154609080945341	0.0	1.0570926340747104	-0.5194561918772498	0.0	1.1173979603983157	-0.636226540294685	0.0	1.0963535150950146	-0.8073048249466142	0.0
35	1.193798449612403	1.0273537741331022	-0.7899098469909884	0.0	1.0312330149108955	-0.7952159398866053	0.0	1.0401910692493834	-1.0364387801603374	0.0	1.0336677480841274	-1.0758574308130595	0.0	1.0724078369941838	-1.0656414363214064	0.0			0.0	0.9950367545504526	-1.080583641902283	0.0	1.0437466182568114	-0.7986192714281153	0.0	1.0388281074518864	-1.026973157470752	0.0	1.0253000269494763	-1.0782402551407666	0.0	1.0265216012612008	-1.0709360036980737	0.0	1.0441701581977627	-1.077995417340215	0.0	0.934753788375506	-1.0829352266707013	0.0	1.0568009564812344	-0.47071887618877767	0.0	1.09348290536161	-0.3386877671100569	0.0	1.113364152482179	-0.41816475098702205	0.0	1.0359003841782606	-0.5210177883340464	0.0	1.1733857611528857	-0.6312934814744129	0.0	1.3221192602507672	-0.6996439141278182	0.0	1.0584294591082577	-0.5199524254517534	0.0	1.1215970729906632	-0.6322274707935025	0.0	1.0951523299532722	-0.8068213025451781	0.0
36	1.227906976744186	1.0278949883225448	-0.7886057473510174	0.0	1.0315744721479083	-0.794893376517444	0.0	1.0401302473671938	-1.0338742603002558	0.0	1.0325776439900487	-1.0743797023218458	0.0	1.0724078394833834	-1.065641435569009	0.0			0.0	0.9950367670213635	-1.0805836344230484	0.0	1.0435775159367617	-0.7983667280545613	0.0	1.0398977814243655	-1.0251871992659705	0.0	1.0248498285839194	-1.0777557136085905	0.0	1.026521605652194	-1.0709360044095964	0.0	1.0441701625455095	-1.0779954221118704	0.0	0.9347536625390646	-1.0829352002245252	0.0	1.0582429445675787	-0.4707074096654713	0.0	1.0951925626228574	-0.33897535587980393	0.0	1.114700889770832	-0.41847951883780127	0.0	1.0369633087752652	-0.5211249004209194	0.0	1.1800715353862572	-0.6233750920436323	0.0	1.3306328418274374	-0.684114745347813	0.0	1.059196419205614	-0.5203336995933044	0.0	1.1239985116156617	-0.6294205762628267	0.0	1.0953735567376215	-0.8063998257781734	0.0
37	1.262015503875969	1.0283931241595192	-0.7876457517535661	0.0	1.0320515433164004	-0.7947121553530513	0.0	1.040227655818849	-1.0313332419277363	0.0	1.0321630865778377	-1.0735345672642367	0.0	1.0724078406754098	-1.0656414352087011	0.0			0.0	0.9950367782551213	-1.080583633574605	0.0	1.0430341631406645	-0.7982234642215569	0.0	1.040707027328075	-1.0234374147641419	0.0	1.0247432786587773	-1.0771757704450518	0.0	1.0265216081934432	-1.0709360037358426	0.0	1.0441701633895586	-1.0779954238921337	0.0	0.9347532226961739	-1.0829352052586076	0.0	1.0594074989653826	-0.4706560332537893	0.0	1.0967659245938863	-0.3392818208745439	0.0	1.1159272066993733	-0.4188458048760099	0.0	1.0381247892161414	-0.5210403645252937	0.0	1.1869558189146465	-0.6156897947725655	0.0	1.3384519529470227	-0.6688898125082214	0.0	1.0597285457215682	-0.5205168770168616	0.0	1.1208854384605242	-0.6290473490911243	0.0	1.0964113786582113	-0.8059838434260671	0.0
38	1.296124031007752	1.0288324393163253	-0.7870690375892578	0.0	1.0326381687973285	-0.7946459915741697	0.0	1.0406259314463324	-1.02919114854727	0.0	1.0323711836354548	-1.07314295964083	0.0	1.0724078410103277	-1.0656414351074672	0.0			0.0	0.9950367859470653	-1.0805836356922833	0.0	1.0425557202143325	-0.7982080286983003	0.0	1.0413737255608846	-1.0220319984768265	0.0	1.0251065928329086	-1.0766935900603405	0.0	1.0265216092854323	-1.07093600267204	0.0	1.0441701625595368	-1.0779954239571952	0.0	0.9347527719106637	-1.0829352219294446	0.0	1.0602898342871396	-0.4705607537004012	0.0	1.0979794708238826	-0.3395255225539367	0.0	1.116929313235886	-0.41913381680905426	0.0	1.0392213184912285	-0.5206393561966984	0.0	1.193561163961212	-0.6081005780566628	0.0	1.3459546388539685	-0.6538194713802602	0.0	1.0605106395978072	-0.5203887847567767	0.0	1.110679449169039	-0.632352249549652	0.0	1.0977535654536097	-0.8055768864020955	0.0
39	1.330232558139535	1.029244973648635	-0.7867980317542053	0.0	1.0332587502662949	-0.7946521782955687	0.0	1.0414621600623768	-1.0277235022970395	0.0	1.0330948405850882	-1.0731161599823447	0.0	1.0724078409010627	-1.0656414351404941	0.0			0.0	0.9950367901014949	-1.0805836384629823	0.0	1.0424174735674556	-0.7983032109270649	0.0	1.042143726370889	-1.021234236729805	0.0	1.0258267140535067	-1.076442941365128	0.0	1.0265216094845242	-1.0709360017342622	0.0	1.0441701612624157	-1.0779954232966658	0.0	0.9347524382396947	-1.0829352389057862	0.0	1.0608752044197682	-0.4704150374931062	0.0	1.098754882323489	-0.33968117149403393	0.0	1.1176147855555463	-0.4192118323148004	0.0	1.0400667361486173	-0.5197935269136246	0.0	1.1992256679568203	-0.6004307726750209	0.0	1.352938082317361	-0.6388428350016895	0.0	1.0617913072762437	-0.5198438583241137	0.0	1.0956052528931708	-0.6396909172921895	0.0	1.0991178439290914	-0.8052710270411938	0.0
40	1.3643410852713178	1.0296898878013483	-0.7868515867573191	0.0	1.0338929513458555	-0.7947946727656893	0.0	1.042891130028485	-1.0271717859721543	0.0	1.0343477650113548	-1.0734086782716576	0.0	1.0724078406379218	-1.0656414352200325	0.0			0.0	0.9950367916747063	-1.0805836407556615	0.0	1.0424364851593038	-0.7985501088778199	0.0	1.0432169915829603	-1.0213159982572158	0.0	1.0264953531018572	-1.0764687982176078	0.0	1.0265216092613114	-1.0709360011015365	0.0	1.0441701601224642	-1.077995422514837	0.0	0.9347522429438349	-1.082935251427713	0.0	1.06105993031239	-0.47026468199009214	0.0	1.0991882155240666	-0.33982738456601713	0.0	1.118010455966767	-0.4190777358593794	0.0	1.0405400389715795	-0.5185168370925821	0.0	1.2037835411160593	-0.5926485968570822	0.0	1.3589783670978646	-0.624065561052379	0.0	1.063478556242649	-0.5188394663885145	0.0	1.0804163218749037	-0.6493475331276567	0.0	1.1005366397960852	-0.8051634864391463	0.0
